<svg xmlns="http://www.w3.org/2000/svg" viewBox="0 0 170.11 153.43">
  <defs>
    <linearGradient id="a" x1="6.96" x2="39.6" y1="61.29" y2="155.76" gradientTransform="matrix(1 0 0 -1 0 215.51)" gradientUnits="userSpaceOnUse">
      <stop offset="0" stop-color="#3b703b" />
      <stop offset=".25" stop-color="#31742f" />
      <stop offset=".51" stop-color="#498a46" />
      <stop offset=".72" stop-color="#5eb45b" />
      <stop offset="1" stop-color="#21e117" />
    </linearGradient>
    <linearGradient id="b" x1="23.9" x2="23.9" y1="35.5" y2="160.5" gradientTransform="matrix(1 0 0 -1 49.5 183.51)" gradientUnits="userSpaceOnUse">
      <stop offset="0" stop-color="#278f20" />
      <stop offset=".34" stop-color="#4d9c48" />
      <stop offset=".67" stop-color="#3bd031" />
      <stop offset="1" stop-color="#8ce086" />
    </linearGradient>
    <linearGradient id="c" x1="68.82" x2="3.08" y1="1.61" y2="155.01" gradientTransform="matrix(1 0 0 -1 96 155.01)" gradientUnits="userSpaceOnUse">
      <stop offset=".07" stop-color="#479d40" />
      <stop offset=".28" stop-color="#4eca43" />
      <stop offset=".49" stop-color="#46db3a" />
      <stop offset=".72" stop-color="#7fee77" />
      <stop offset=".94" stop-color="#92fc8c" />
    </linearGradient>
  </defs>
  <path fill="url(#a)" d="M38.97 115.69c-9.15 22.67-27.05 35.29-34.31 37.74-5.28-7.87-7.65-28.31 1.49-50.98 9.15-22.67 29.09-38.14 35.96-41.83 2.84 7.25 6 32.4-3.15 55.07Z" />
  <path fill="url(#b)" d="M97.9 93c0 30.52-16.44 54.13-24.5 60.36-10.85-6.65-24.5-29.84-24.5-60.36s17.59-57.16 24.5-64.64C80.8 35.42 97.9 62.48 97.9 93Z" />
  <path fill="url(#c)" d="M160.02 68.09c14.69 34.29 10.63 74.53 4.81 85.31-15.08-2.38-43.76-28.03-58.46-62.32C91.68 56.79 95.13 11.64 99.09-.01c11.5 4.47 46.24 33.81 60.93 68.09Z" />
</svg>